<svg class="nc-icon glyph" xmlns="http://www.w3.org/2000/svg" xmlns:xlink="http://www.w3.org/1999/xlink" x="0px" y="0px" width="32px" height="32px" viewBox="0 0 32 32"><g>
<path fill="#494838" d="M31,4H1C0.4,4,0,4.4,0,5v22c0,0.6,0.4,1,1,1h30c0.6,0,1-0.4,1-1V5C32,4.4,31.6,4,31,4z M9.8,17.6l-4,5
	C5.6,22.9,5.3,23,5,23c-0.2,0-0.4-0.1-0.6-0.2c-0.4-0.3-0.5-1-0.2-1.4l4-5c0.3-0.4,1-0.5,1.4-0.2C10.1,16.6,10.1,17.2,9.8,17.6z
	 M27.6,22.8C27.4,22.9,27.2,23,27,23c-0.3,0-0.6-0.1-0.8-0.4l-4-5c-0.3-0.4-0.3-1.1,0.2-1.4c0.4-0.3,1.1-0.3,1.4,0.2l4,5
	C28.1,21.8,28.1,22.4,27.6,22.8z M27.6,9.8l-11,9C16.4,18.9,16.2,19,16,19s-0.4-0.1-0.6-0.2l-11-9c-0.4-0.4-0.5-1-0.1-1.4
	c0.4-0.4,1-0.5,1.4-0.1L16,16.7l10.4-8.5c0.4-0.3,1.1-0.3,1.4,0.1C28.1,8.8,28.1,9.4,27.6,9.8z"></path>
</g></svg>