<?xml version="1.0" encoding="UTF-8" standalone="no"?>
<svg width="1024px" height="400px" viewBox="0 0 1024 400" version="1.1" xmlns="http://www.w3.org/2000/svg" xmlns:xlink="http://www.w3.org/1999/xlink" xmlns:sketch="http://www.bohemiancoding.com/sketch/ns">
    <!-- Generator: Sketch 3.3.3 (12081) - http://www.bohemiancoding.com/sketch -->
    <title>learn-code-share</title>
    <desc>Created with Sketch.</desc>
    <defs></defs>
    <g id="Page-1" stroke="none" stroke-width="1" fill="none" fill-rule="evenodd" sketch:type="MSPage">
        <g id="learn-code-share" sketch:type="MSArtboardGroup">
            <g id="content" sketch:type="MSLayerGroup" transform="translate(45.000000, 56.000000)">
                <g id="SHARE" transform="translate(814.232471, 83.500000)" fill="#494838">
                    <g id="Shape-+-Shape" sketch:type="MSShapeGroup">
                        <path d="M60,0 C26.8695652,0 0,26.8695652 0,60 C0,93.1304348 26.8695652,120 60,120 C93.1304348,120 120,93.1304348 120,60 C120,26.8695652 93.1304348,0 60,0 L60,0 Z M60,114.782609 C46.173913,114.782609 33.6521739,109.565217 24,100.956522 C25.0434783,99.9130435 25.826087,98.8695652 26.6086957,97.826087 C31.3043478,89.7391304 31.3043478,81.3913043 26.6086957,74.0869565 C25.3043478,72.2608696 23.7391304,70.4347826 22.173913,68.6086957 C19.5652174,65.7391304 16.6956522,62.3478261 16.6956522,60 C16.6956522,58.173913 21.3913043,55.826087 25.0434783,54 C29.4782609,51.9130435 34.173913,49.5652174 37.0434783,45.9130435 C43.3043478,37.826087 36,24.7826087 34.4347826,22.173913 C32.8695652,19.3043478 31.0434783,16.9565217 29.2173913,15.1304348 C36,10.4347826 44.0869565,7.30434783 52.6956522,6 L52.6956522,8.08695652 C52.6956522,12.2608696 56.6086957,15.1304348 60.5217391,17.7391304 C62.8695652,19.3043478 64.9565217,20.8695652 66,22.4347826 C67.5652174,24.5217391 68.0869565,27.1304348 68.6086957,29.2173913 C69.3913043,32.3478261 70.6956522,36.7826087 75.6521739,36.7826087 L76.173913,36.7826087 C79.3043478,36.5217391 93.3913043,33.3913043 104.608696,28.173913 C111.130435,37.3043478 115.043478,48.2608696 115.043478,60.2608696 C114.782609,90.2608696 90.2608696,114.782609 60,114.782609 L60,114.782609 Z" id="Shape"></path>
                        <path d="M78.2608696,46.4347826 C70.9565217,46.4347826 63.1304348,50.0869565 59.4782609,55.3043478 C57.1304348,58.4347826 56.6086957,62.0869565 57.6521739,65.7391304 C60.7826087,75.1304348 60,81.3913043 59.4782609,86.0869565 C58.9565217,91.0434783 58.4347826,95.4782609 63.6521739,98.8695652 C65.2173913,99.9130435 67.0434783,100.434783 69.1304348,100.434783 C74.3478261,100.434783 80.6086957,97.0434783 86.3478261,91.0434783 C92.6086957,84.7826087 99.1304348,74.6086957 99.1304348,64.9565217 C99.1304348,54.5217391 89.7391304,46.4347826 78.2608696,46.4347826 L78.2608696,46.4347826 Z" id="Shape"></path>
                    </g>
                    <text sketch:type="MSTextLayer" font-family="Open Sans" font-size="18" font-weight="bold" letter-spacing="1">
                        <tspan x="33.5" y="154.5">SHARE</tspan>
                    </text>
                </g>
                <g id="arrows" transform="translate(185.000000, 130.000000)" fill="#444444" sketch:type="MSShapeGroup">
                    <g id="Group" transform="translate(0.000000, 0.404762)">
                        <path d="M1.19047619,14.2857143 L32.1428571,14.2857143 C32.8571429,14.2857143 33.3333333,13.8095238 33.3333333,13.0952381 C33.3333333,12.3809524 32.8571429,11.9047619 32.1428571,11.9047619 L1.19047619,11.9047619 C0.476190476,11.9047619 0,12.3809524 0,13.0952381 C0,13.8095238 0.476190476,14.2857143 1.19047619,14.2857143 L1.19047619,14.2857143 Z" id="Shape"></path>
                        <path d="M31.547619,26.0714286 C31.7857143,26.1904762 31.9047619,26.1904762 32.1428571,26.1904762 C32.3809524,26.1904762 32.6190476,26.0714286 32.8571429,25.952381 L49.5238095,14.047619 C49.8809524,13.8095238 50,13.452381 50,13.0952381 C50,12.7380952 49.7619048,12.3809524 49.5238095,12.1428571 L32.8571429,0.238095238 C32.5,-4.94743135e-15 32.0238095,-4.94743135e-15 31.6666667,0.119047619 C31.1904762,0.357142857 30.952381,0.714285714 30.952381,1.19047619 L30.952381,25 C30.952381,25.4761905 31.1904762,25.8333333 31.547619,26.0714286 L31.547619,26.0714286 Z" id="Shape"></path>
                    </g>
                    <g id="Group-Copy" transform="translate(549.000000, 0.404762)">
                        <path d="M1.19047619,14.2857143 L32.1428571,14.2857143 C32.8571429,14.2857143 33.3333333,13.8095238 33.3333333,13.0952381 C33.3333333,12.3809524 32.8571429,11.9047619 32.1428571,11.9047619 L1.19047619,11.9047619 C0.476190476,11.9047619 0,12.3809524 0,13.0952381 C0,13.8095238 0.476190476,14.2857143 1.19047619,14.2857143 L1.19047619,14.2857143 Z" id="Shape"></path>
                        <path d="M31.547619,26.0714286 C31.7857143,26.1904762 31.9047619,26.1904762 32.1428571,26.1904762 C32.3809524,26.1904762 32.6190476,26.0714286 32.8571429,25.952381 L49.5238095,14.047619 C49.8809524,13.8095238 50,13.452381 50,13.0952381 C50,12.7380952 49.7619048,12.3809524 49.5238095,12.1428571 L32.8571429,0.238095238 C32.5,-4.94743135e-15 32.0238095,-4.94743135e-15 31.6666667,0.119047619 C31.1904762,0.357142857 30.952381,0.714285714 30.952381,1.19047619 L30.952381,25 C30.952381,25.4761905 31.1904762,25.8333333 31.547619,26.0714286 L31.547619,26.0714286 Z" id="Shape"></path>
                    </g>
                </g>
                <g id="CODE" transform="translate(275.000000, 0.000000)">
                    <g id="Dark-Code-Editor-Window">
                        <g id="Base-+-Header">
                            <rect id="Base" fill="#494838" sketch:type="MSShapeGroup" x="0" y="10.8679245" width="419" height="277.132075" rx="5"></rect>
                            <g id="Header">
                                <path d="M4.99746032,0 C2.2374392,0 0,2.23349057 0,4.99012117 L0,21.0566038 L419,21.0566038 L419,4.99012117 C419,2.23415335 416.770837,0 414.00254,0 L4.99746032,0 Z" id="Base" fill="#EEF1F5" sketch:type="MSShapeGroup"></path>
                                <g id="Options" transform="translate(6.121753, 6.113208)" sketch:type="MSShapeGroup">
                                    <ellipse id="Icon" fill="#EF534A" cx="3.74107143" cy="3.73584906" rx="3.74107143" ry="3.73584906"></ellipse>
                                    <ellipse id="Icon" fill="#EEC04A" cx="16.6647727" cy="3.73584906" rx="3.74107143" ry="3.73584906"></ellipse>
                                    <ellipse id="Icon" fill="#97D272" cx="29.588474" cy="3.73584906" rx="3.74107143" ry="3.73584906"></ellipse>
                                </g>
                                <text id="index.html" opacity="0.85" sketch:type="MSTextLayer" font-family="Myriad Pro" font-size="9.5058575" font-weight="normal" sketch:alignment="middle" fill="#525355">
                                    <tspan x="189.940637" y="13.1132075">index.html</tspan>
                                </text>
                            </g>
                        </g>
                        <text id="Line-Numbers" opacity="0.8" sketch:type="MSTextLayer" font-family="Andale Mono" font-size="9.5058575" font-weight="normal" sketch:alignment="right" fill="#858585">
                            <tspan x="14.0212065" y="36.8490566">1</tspan>
                            <tspan x="14.0212065" y="51.8490566">2</tspan>
                            <tspan x="14.0212065" y="66.8490566">3</tspan>
                            <tspan x="14.0212065" y="81.8490566">4</tspan>
                            <tspan x="14.0212065" y="96.8490566">5</tspan>
                            <tspan x="14.0212065" y="111.849057">6</tspan>
                            <tspan x="14.0212065" y="126.849057">7</tspan>
                            <tspan x="14.0212065" y="141.849057">8</tspan>
                            <tspan x="14.0212065" y="156.849057">9</tspan>
                            <tspan x="8.31676374" y="171.849057">10</tspan>
                        </text>
                        <text id="&lt;!doctype-html&gt;" sketch:type="MSTextLayer" font-family="Andale Mono" font-size="9.5058575" font-weight="normal" fill="#E2E7ED">
                            <tspan x="29.2483766" y="36.8490566">&lt;!doctype html&gt;</tspan>
                            <tspan x="29.2483766" y="51.8490566">&lt;html lang="en"&gt;</tspan>
                            <tspan x="29.2483766" y="66.8490566">&lt;head&gt;</tspan>
                            <tspan x="29.2483766" y="81.8490566">	&lt;meta charset=“UTF-8”&gt;</tspan>
                            <tspan x="29.2483766" y="96.8490566">	&lt;title&gt;My First Website&lt;/title&gt;</tspan>
                            <tspan x="29.2483766" y="111.849057">&lt;/head&gt;</tspan>
                            <tspan x="29.2483766" y="126.849057">&lt;body&gt;</tspan>
                            <tspan x="29.2483766" y="141.849057">	&lt;h1&gt;Hello World!&lt;/h1&gt;</tspan>
                            <tspan x="29.2483766" y="156.849057">&lt;/body&gt;</tspan>
                            <tspan x="29.2483766" y="171.849057">&lt;/html&gt;</tspan>
                        </text>
                    </g>
                    <text id="LEARN-&amp;-CODE" sketch:type="MSTextLayer" font-family="Open Sans" font-size="18" font-weight="bold" letter-spacing="1" fill="#494838">
                        <tspan x="138" y="322">LEARN &amp; CODE</tspan>
                    </text>
                </g>
                <g id="LEARN" transform="translate(0.000000, 53.000000)" fill="#494838">
                    <text id="MEET" sketch:type="MSTextLayer" font-family="Open Sans" font-size="18" font-weight="bold" letter-spacing="1">
                        <tspan x="46" y="185">MEET</tspan>
                    </text>
                    <g id="Group" sketch:type="MSShapeGroup">
                        <path d="M122.6875,47.1875 C133.06875,47.1875 141.5625,38.69375 141.5625,28.3125 C141.5625,17.93125 133.06875,9.4375 122.6875,9.4375 C112.30625,9.4375 103.8125,17.93125 103.8125,28.3125 C103.8125,38.69375 112.30625,47.1875 122.6875,47.1875 L122.6875,47.1875 Z" id="Shape"></path>
                        <path d="M28.3125,47.1875 C38.69375,47.1875 47.1875,38.69375 47.1875,28.3125 C47.1875,17.93125 38.69375,9.4375 28.3125,9.4375 C17.93125,9.4375 9.4375,17.93125 9.4375,28.3125 C9.4375,38.69375 17.93125,47.1875 28.3125,47.1875 L28.3125,47.1875 Z" id="Shape"></path>
                        <path d="M33.03125,94.375 L33.03125,56.625 C33.03125,54.7375 33.503125,53.321875 33.975,51.90625 L4.71875,51.90625 C1.8875,51.90625 0,53.79375 0,56.625 L0,80.21875 C0,81.634375 0.471875,82.578125 1.415625,83.521875 L14.15625,96.2625 L14.15625,127.40625 C14.15625,130.2375 16.04375,132.125 18.875,132.125 L42.46875,132.125 C45.3,132.125 47.1875,130.2375 47.1875,127.40625 L47.1875,114.19375 L37.278125,104.284375 C34.446875,101.925 33.03125,98.15 33.03125,94.375 L33.03125,94.375 Z" id="Shape"></path>
                        <path d="M146.28125,51.90625 L117.025,51.90625 C117.496875,53.321875 117.96875,54.7375 117.96875,56.625 L117.96875,94.375 C117.96875,98.15 116.553125,101.925 113.721875,104.284375 L103.8125,114.19375 L103.8125,127.40625 C103.8125,130.2375 105.7,132.125 108.53125,132.125 L132.125,132.125 C134.95625,132.125 136.84375,130.2375 136.84375,127.40625 L136.84375,96.2625 L149.584375,83.521875 C150.528125,82.578125 151,81.634375 151,80.21875 L151,56.625 C151,53.79375 149.1125,51.90625 146.28125,51.90625 L146.28125,51.90625 Z" id="Shape"></path>
                        <path d="M108.53125,94.375 L108.53125,56.625 C108.53125,53.79375 106.64375,51.90625 103.8125,51.90625 L47.1875,51.90625 C44.35625,51.90625 42.46875,53.79375 42.46875,56.625 L42.46875,94.375 C42.46875,95.790625 42.940625,96.734375 43.884375,97.678125 L56.625,110.41875 L56.625,146.28125 C56.625,149.1125 58.5125,151 61.34375,151 L89.65625,151 C92.4875,151 94.375,149.1125 94.375,146.28125 L94.375,110.41875 L107.115625,97.678125 C108.059375,96.734375 108.53125,95.790625 108.53125,94.375 L108.53125,94.375 Z" id="Shape"></path>
                        <path d="M75.5,47.1875 C88.7125,47.1875 99.09375,36.80625 99.09375,23.59375 C99.09375,10.38125 88.7125,0 75.5,0 C62.2875,0 51.90625,10.38125 51.90625,23.59375 C51.90625,36.80625 62.2875,47.1875 75.5,47.1875 L75.5,47.1875 Z" id="Shape"></path>
                    </g>
                </g>
            </g>
        </g>
    </g>
</svg>