<?xml version="1.0" encoding="UTF-8" standalone="no"?>
<svg width="1024px" height="400px" viewBox="0 0 1024 400" version="1.1" xmlns="http://www.w3.org/2000/svg" xmlns:xlink="http://www.w3.org/1999/xlink" xmlns:sketch="http://www.bohemiancoding.com/sketch/ns">
    <!-- Generator: Sketch 3.3.3 (12081) - http://www.bohemiancoding.com/sketch -->
    <title>learn-code-share</title>
    <desc>Created with Sketch.</desc>
    <defs></defs>
    <g id="Page-1" stroke="none" stroke-width="1" fill="none" fill-rule="evenodd" sketch:type="MSPage">
        <g id="learn-code-share" sketch:type="MSArtboardGroup">
            <g id="content" sketch:type="MSLayerGroup" transform="translate(45.000000, 56.000000)">
                <g id="SHARE" transform="translate(814.232471, 83.500000)" fill="#494838">
                    <g id="Shape-+-Shape" sketch:type="MSShapeGroup">
                        <path d="M60,0 C26.8695652,0 0,26.8695652 0,60 C0,93.1304348 26.8695652,120 60,120 C93.1304348,120 120,93.1304348 120,60 C120,26.8695652 93.1304348,0 60,0 L60,0 Z M60,114.782609 C46.173913,114.782609 33.6521739,109.565217 24,100.956522 C25.0434783,99.9130435 25.826087,98.8695652 26.6086957,97.826087 C31.3043478,89.7391304 31.3043478,81.3913043 26.6086957,74.0869565 C25.3043478,72.2608696 23.7391304,70.4347826 22.173913,68.6086957 C19.5652174,65.7391304 16.6956522,62.3478261 16.6956522,60 C16.6956522,58.173913 21.3913043,55.826087 25.0434783,54 C29.4782609,51.9130435 34.173913,49.5652174 37.0434783,45.9130435 C43.3043478,37.826087 36,24.7826087 34.4347826,22.173913 C32.8695652,19.3043478 31.0434783,16.9565217 29.2173913,15.1304348 C36,10.4347826 44.0869565,7.30434783 52.6956522,6 L52.6956522,8.08695652 C52.6956522,12.2608696 56.6086957,15.1304348 60.5217391,17.7391304 C62.8695652,19.3043478 64.9565217,20.8695652 66,22.4347826 C67.5652174,24.5217391 68.0869565,27.1304348 68.6086957,29.2173913 C69.3913043,32.3478261 70.6956522,36.7826087 75.6521739,36.7826087 L76.173913,36.7826087 C79.3043478,36.5217391 93.3913043,33.3913043 104.608696,28.173913 C111.130435,37.3043478 115.043478,48.2608696 115.043478,60.2608696 C114.782609,90.2608696 90.2608696,114.782609 60,114.782609 L60,114.782609 Z" id="Shape"></path>
                        <path d="M78.2608696,46.4347826 C70.9565217,46.4347826 63.1304348,50.0869565 59.4782609,55.3043478 C57.1304348,58.4347826 56.6086957,62.0869565 57.6521739,65.7391304 C60.7826087,75.1304348 60,81.3913043 59.4782609,86.0869565 C58.9565217,91.0434783 58.4347826,95.4782609 63.6521739,98.8695652 C65.2173913,99.9130435 67.0434783,100.434783 69.1304348,100.434783 C74.3478261,100.434783 80.6086957,97.0434783 86.3478261,91.0434783 C92.6086957,84.7826087 99.1304348,74.6086957 99.1304348,64.9565217 C99.1304348,54.5217391 89.7391304,46.4347826 78.2608696,46.4347826 L78.2608696,46.4347826 Z" id="Shape"></path>
                    </g>
                    <text sketch:type="MSTextLayer" font-family="Open Sans" font-size="18" font-weight="bold" letter-spacing="1">
                        <tspan x="33.5" y="154.5">SHARE</tspan>
                    </text>
                </g>
                <g id="arrows" transform="translate(185.000000, 130.000000)" fill="#444444" sketch:type="MSShapeGroup">
                    <g id="Group" transform="translate(0.000000, 0.404762)">
                        <path d="M1.19047619,14.2857143 L32.1428571,14.2857143 C32.8571429,14.2857143 33.3333333,13.8095238 33.3333333,13.0952381 C33.3333333,12.3809524 32.8571429,11.9047619 32.1428571,11.9047619 L1.19047619,11.9047619 C0.476190476,11.9047619 0,12.3809524 0,13.0952381 C0,13.8095238 0.476190476,14.2857143 1.19047619,14.2857143 L1.19047619,14.2857143 Z" id="Shape"></path>
                        <path d="M31.547619,26.0714286 C31.7857143,26.1904762 31.9047619,26.1904762 32.1428571,26.1904762 C32.3809524,26.1904762 32.6190476,26.0714286 32.8571429,25.952381 L49.5238095,14.047619 C49.8809524,13.8095238 50,13.452381 50,13.0952381 C50,12.7380952 49.7619048,12.3809524 49.5238095,12.1428571 L32.8571429,0.238095238 C32.5,-4.94743135e-15 32.0238095,-4.94743135e-15 31.6666667,0.119047619 C31.1904762,0.357142857 30.952381,0.714285714 30.952381,1.19047619 L30.952381,25 C30.952381,25.4761905 31.1904762,25.8333333 31.547619,26.0714286 L31.547619,26.0714286 Z" id="Shape"></path>
                    </g>
                    <g id="Group-Copy" transform="translate(549.000000, 0.404762)">
                        <path d="M1.19047619,14.2857143 L32.1428571,14.2857143 C32.8571429,14.2857143 33.3333333,13.8095238 33.3333333,13.0952381 C33.3333333,12.3809524 32.8571429,11.9047619 32.1428571,11.9047619 L1.19047619,11.9047619 C0.476190476,11.9047619 0,12.3809524 0,13.0952381 C0,13.8095238 0.476190476,14.2857143 1.19047619,14.2857143 L1.19047619,14.2857143 Z" id="Shape"></path>
                        <path d="M31.547619,26.0714286 C31.7857143,26.1904762 31.9047619,26.1904762 32.1428571,26.1904762 C32.3809524,26.1904762 32.6190476,26.0714286 32.8571429,25.952381 L49.5238095,14.047619 C49.8809524,13.8095238 50,13.452381 50,13.0952381 C50,12.7380952 49.7619048,12.3809524 49.5238095,12.1428571 L32.8571429,0.238095238 C32.5,-4.94743135e-15 32.0238095,-4.94743135e-15 31.6666667,0.119047619 C31.1904762,0.357142857 30.952381,0.714285714 30.952381,1.19047619 L30.952381,25 C30.952381,25.4761905 31.1904762,25.8333333 31.547619,26.0714286 L31.547619,26.0714286 Z" id="Shape"></path>
                    </g>
                </g>
                <g id="CODE" transform="translate(275.000000, 0.000000)">
                    <g id="Dark-Code-Editor-Window">
                        <g id="Base-+-Header">
                            <rect id="Base" fill="#494838" sketch:type="MSShapeGroup" x="0" y="10.8679245" width="419" height="277.132075" rx="5"></rect>
                            <g id="Header">
                                <path d="M4.99746032,0 C2.2374392,0 0,2.23349057 0,4.99012117 L0,21.0566038 L419,21.0566038 L419,4.99012117 C419,2.23415335 416.770837,0 414.00254,0 L4.99746032,0 Z" id="Base" fill="#EEF1F5" sketch:type="MSShapeGroup"></path>
                                <g id="Options" transform="translate(6.121753, 6.113208)" sketch:type="MSShapeGroup">
                                    <ellipse id="Icon" fill="#EF534A" cx="3.74107143" cy="3.73584906" rx="3.74107143" ry="3.73584906"></ellipse>
                                    <ellipse id="Icon" fill="#EEC04A" cx="16.6647727" cy="3.73584906" rx="3.74107143" ry="3.73584906"></ellipse>
                                    <ellipse id="Icon" fill="#97D272" cx="29.588474" cy="3.73584906" rx="3.74107143" ry="3.73584906"></ellipse>
                                </g>
                                <text id="index.html" opacity="0.85" sketch:type="MSTextLayer" font-family="Myriad Pro" font-size="9.5058575" font-weight="normal" sketch:alignment="middle" fill="#525355">
                                    <tspan x="189.940637" y="13.1132075">index.html</tspan>
                                </text>
                            </g>
                        </g>
                        <text id="Line-Numbers" opacity="0.8" sketch:type="MSTextLayer" font-family="Andale Mono" font-size="9.5058575" font-weight="normal" sketch:alignment="right" fill="#858585">
                            <tspan x="14.0212065" y="36.8490566">1</tspan>
                            <tspan x="14.0212065" y="51.8490566">2</tspan>
                            <tspan x="14.0212065" y="66.8490566">3</tspan>
                            <tspan x="14.0212065" y="81.8490566">4</tspan>
                            <tspan x="14.0212065" y="96.8490566">5</tspan>
                            <tspan x="14.0212065" y="111.849057">6</tspan>
                            <tspan x="14.0212065" y="126.849057">7</tspan>
                            <tspan x="14.0212065" y="141.849057">8</tspan>
                            <tspan x="14.0212065" y="156.849057">9</tspan>
                            <tspan x="8.31676374" y="171.849057">10</tspan>
                        </text>
                        <text id="&lt;!doctype-html&gt;" sketch:type="MSTextLayer" font-family="Andale Mono" font-size="9.5058575" font-weight="normal" fill="#E2E7ED">
                            <tspan x="29.2483766" y="36.8490566">&lt;!doctype html&gt;</tspan>
                            <tspan x="29.2483766" y="51.8490566">&lt;html lang="en"&gt;</tspan>
                            <tspan x="29.2483766" y="66.8490566">&lt;head&gt;</tspan>
                            <tspan x="29.2483766" y="81.8490566">	&lt;meta charset=“UTF-8”&gt;</tspan>
                            <tspan x="29.2483766" y="96.8490566">	&lt;title&gt;My First Website&lt;/title&gt;</tspan>
                            <tspan x="29.2483766" y="111.849057">&lt;/head&gt;</tspan>
                            <tspan x="29.2483766" y="126.849057">&lt;body&gt;</tspan>
                            <tspan x="29.2483766" y="141.849057">	&lt;h1&gt;Hello World!&lt;/h1&gt;</tspan>
                            <tspan x="29.2483766" y="156.849057">&lt;/body&gt;</tspan>
                            <tspan x="29.2483766" y="171.849057">&lt;/html&gt;</tspan>
                        </text>
                    </g>
                    <text sketch:type="MSTextLayer" font-family="Open Sans" font-size="18" font-weight="bold" letter-spacing="1" fill="#494838">
                        <tspan x="183" y="322">CODE</tspan>
                    </text>
                </g>
                <g id="LEARN" transform="translate(0.000000, 52.000000)" fill="#494838">
                    <g id="Group" transform="translate(0.767529, 0.847826)" sketch:type="MSShapeGroup">
                        <path d="M30.8,56.2434783 C32.473913,53.5652174 33.4782609,50.2173913 33.4782609,46.8695652 C33.4782609,37.4956522 26.1130435,30.1304348 16.7391304,30.1304348 C7.36521739,30.1304348 0,37.4956522 0,46.8695652 C0,56.2434783 7.36521739,63.6086957 16.7391304,63.6086957 C20.0869565,63.6086957 23.4347826,62.6043478 26.1130435,60.9304348 L37.8304348,72.6478261 C38.5,73.3173913 39.5043478,73.6521739 40.173913,73.6521739 C40.8434783,73.6521739 41.8478261,73.3173913 42.5173913,72.6478261 C43.8565217,71.3086957 43.8565217,69.3 42.5173913,67.9608696 L30.8,56.2434783 L30.8,56.2434783 Z" id="Shape"></path>
                        <path d="M73.6521739,33.1434783 L73.6521739,50.2173913 C73.6521739,52.226087 74.9913043,53.5652174 77,53.5652174 C79.0086957,53.5652174 80.3478261,52.226087 80.3478261,50.2173913 L80.3478261,33.1434783 C88.0478261,31.4695652 93.7391304,24.773913 93.7391304,16.7391304 C93.7391304,7.36521739 86.373913,0 77,0 C67.626087,0 60.2608696,7.36521739 60.2608696,16.7391304 C60.2608696,24.773913 65.9521739,31.4695652 73.6521739,33.1434783 L73.6521739,33.1434783 Z" id="Shape"></path>
                        <path d="M137.26087,30.1304348 C127.886957,30.1304348 120.521739,37.4956522 120.521739,46.8695652 C120.521739,50.2173913 121.526087,53.5652174 123.2,56.2434783 L111.482609,67.9608696 C110.143478,69.3 110.143478,71.3086957 111.482609,72.6478261 C112.152174,73.3173913 113.156522,73.6521739 113.826087,73.6521739 C114.495652,73.6521739 115.5,73.3173913 116.169565,72.6478261 L127.886957,60.9304348 C130.565217,62.6043478 133.913043,63.6086957 137.26087,63.6086957 C146.634783,63.6086957 154,56.2434783 154,46.8695652 C154,37.4956522 146.634783,30.1304348 137.26087,30.1304348 L137.26087,30.1304348 Z" id="Shape"></path>
                        <path d="M77,63.6086957 C62.2695652,63.6086957 50.2173913,75.6608696 50.2173913,90.3913043 L50.2173913,97.0869565 C50.2173913,111.817391 62.2695652,123.869565 77,123.869565 C91.7304348,123.869565 103.782609,111.817391 103.782609,97.0869565 L103.782609,90.3913043 C103.782609,75.6608696 91.7304348,63.6086957 77,63.6086957 L77,63.6086957 Z" id="Shape"></path>
                        <path d="M115.834783,127.217391 L100.769565,120.521739 C94.7434783,126.547826 86.373913,130.565217 77,130.565217 C67.626087,130.565217 59.2565217,126.882609 53.2304348,120.521739 L38.1652174,127.217391 C33.4782609,129.226087 30.1304348,133.913043 30.1304348,139.269565 L30.1304348,147.304348 C30.1304348,149.313043 31.4695652,150.652174 33.4782609,150.652174 L120.521739,150.652174 C122.530435,150.652174 123.869565,149.313043 123.869565,147.304348 L123.869565,139.269565 C123.869565,133.913043 120.521739,129.226087 115.834783,127.217391 L115.834783,127.217391 Z" id="Shape"></path>
                    </g>
                    <text sketch:type="MSTextLayer" font-family="Open Sans" font-size="18" font-weight="bold" letter-spacing="1">
                        <tspan x="46" y="186">LEAR</tspan>
                        <tspan x="94.5517578" y="186">N</tspan>
                    </text>
                </g>
            </g>
        </g>
    </g>
</svg>